<svg width="16" height="16" viewBox="0 0 16 16" fill="none" xmlns="http://www.w3.org/2000/svg">
<path d="M7.9975 16C3.58767 16 0 12.4112 0 8C0 3.58883 3.58767 0 7.9975 0L11.9212 0C12.0868 0 12.2212 0.134315 12.2212 0.3V2.9242C12.2212 3.08988 12.3555 3.2242 12.5212 3.2242L15.6954 3.2242C15.861 3.2242 15.9952 3.35833 15.9954 3.52389L16 8.06441C16 10.5361 14.8503 12.8841 12.9246 14.3516C11.5095 15.43 9.8058 16 7.9975 16ZM7.9975 1.86265C4.61437 1.86265 1.86204 4.61586 1.86204 8C1.86204 11.3841 4.61437 14.1374 7.9975 14.1374C9.39463 14.1374 10.7082 13.6991 11.7962 12.8701C13.2625 11.7525 14.138 9.95845 14.138 8.07069L14.1199 5.38484C14.1188 5.21994 13.9849 5.08685 13.82 5.08685H12.5212C12.3555 5.08685 12.2212 5.22116 12.2212 5.38685V7.56341C12.2212 8.07778 11.8044 8.49482 11.2901 8.49482C10.776 8.49482 10.3591 8.07778 10.3591 7.56341V4.37614C10.3584 4.30209 10.3595 4.2445 10.3595 4.18017C10.3595 4.10421 10.3599 3.96187 10.36 3.89019L10.3592 2.16251C10.3592 1.99688 10.2249 1.86265 10.0592 1.86265L7.9975 1.86265Z" fill="#FFA23E"/>
</svg>
