<svg width="390" height="101" viewBox="0 0 390 101" fill="none" xmlns="http://www.w3.org/2000/svg">
<path d="M46.2515 96.0587C20.7484 96.0587 0 75.3036 0 49.7927C0 24.2819 20.7484 3.52686 46.2515 3.52686L67.6778 3.52686C69.3347 3.52686 70.6778 4.87 70.6778 6.52686V20.6732C70.6778 21.5016 71.3494 22.1732 72.1778 22.1732L89.5065 22.1732C91.1621 22.1732 92.5048 23.5145 92.5065 25.1701L92.5318 50.1653C92.5318 64.4594 85.8831 78.0384 74.7463 86.5256C66.5622 92.7624 56.7093 96.0587 46.2515 96.0587ZM46.2515 14.299C26.686 14.299 10.7686 30.2215 10.7686 49.7927C10.7686 69.364 26.686 85.2865 46.2515 85.2865C54.3314 85.2865 61.9279 82.7521 68.22 77.9574C76.7002 71.4944 81.7631 61.1189 81.7631 50.2016L81.6541 33.9386C81.6504 33.3889 81.2038 32.9453 80.6541 32.9453H71.6778C71.1256 32.9453 70.6778 33.393 70.6778 33.9453V47.2678C70.6778 50.2426 68.2674 52.6544 65.2935 52.6544C62.3203 52.6544 59.9092 50.2426 59.9092 47.2678V28.8351C59.9051 28.4069 59.9114 28.0738 59.9114 27.7018C59.9114 27.2625 59.9138 26.4393 59.9146 26.0247L59.9097 15.2985C59.9094 14.7464 59.4618 14.299 58.9097 14.299L46.2515 14.299Z" fill="white"/>
<path d="M123.343 41.3106V0.357311H131.808V16.7936H149.207V0.357311H157.645V41.3106H149.207V24.0498H131.808V41.3106H123.343Z" fill="white"/>
<path d="M161.92 41.3106V12.286H170.028V41.3106H161.92ZM165.961 8.63043C164.623 8.63043 163.514 8.22731 162.635 7.42107C161.755 6.5965 161.316 5.56122 161.316 4.31521C161.316 3.06921 161.755 2.04308 162.635 1.23684C163.514 0.412282 164.623 0 165.961 0C167.28 0 168.379 0.412282 169.259 1.23684C170.138 2.04308 170.578 3.06921 170.578 4.31521C170.578 5.56122 170.138 6.5965 169.259 7.42107C168.379 8.22731 167.28 8.63043 165.961 8.63043Z" fill="white"/>
<path d="M174.084 41.3106V12.286H181.89V17.5082C182.751 15.5476 183.97 14.0909 185.546 13.138C187.121 12.1669 188.835 11.6813 190.685 11.6813C192.646 11.6813 194.378 12.1852 195.88 13.193C197.401 14.1825 198.464 15.5659 199.068 17.3433C199.838 15.5659 201.047 14.1825 202.697 13.193C204.364 12.1852 206.251 11.6813 208.359 11.6813C211.144 11.6813 213.462 12.5883 215.312 14.4024C217.163 16.1981 218.088 18.7542 218.088 22.0708V41.3106H210.008V23.555C210.008 21.8143 209.531 20.5133 208.578 19.6521C207.644 18.7909 206.48 18.3603 205.088 18.3603C203.53 18.3603 202.293 18.8642 201.377 19.872C200.461 20.8798 200.003 22.1991 200.003 23.8299V41.3106H192.197V23.3351C192.197 21.8326 191.748 20.6324 190.85 19.7345C189.952 18.8184 188.798 18.3603 187.387 18.3603C185.94 18.3603 184.712 18.8642 183.704 19.872C182.696 20.8798 182.192 22.3182 182.192 24.1872V41.3106H174.084Z" fill="white"/>
<path d="M231.022 41.8053C228.127 41.8053 225.736 41.0816 223.848 39.634C221.979 38.1864 221.045 36.0151 221.045 33.12C221.045 30.9394 221.567 29.2353 222.611 28.0077C223.656 26.7617 225.039 25.8546 226.762 25.2866C228.484 24.7186 230.353 24.3429 232.369 24.1597C235.026 23.8848 236.885 23.61 237.948 23.3351C239.011 23.0603 239.542 22.4556 239.542 21.5211V21.3287C239.542 20.2659 239.121 19.3956 238.278 18.7176C237.435 18.0396 236.272 17.7006 234.787 17.7006C233.285 17.7006 232.066 18.0488 231.132 18.7451C230.197 19.4414 229.684 20.3484 229.593 21.4661H221.979C222.162 18.4794 223.39 16.1065 225.662 14.3474C227.934 12.57 231.059 11.6813 235.035 11.6813C239.011 11.6813 242.089 12.57 244.27 14.3474C246.45 16.1065 247.541 18.5343 247.541 21.631V41.3106H239.625V37.2153H239.515C238.745 38.6262 237.692 39.7439 236.354 40.5685C235.016 41.3931 233.239 41.8053 231.022 41.8053ZM233.276 36.1708C235.218 36.1708 236.757 35.6578 237.893 34.6316C239.029 33.5872 239.597 32.2771 239.597 30.7012V27.7878C239.139 28.0443 238.379 28.2825 237.316 28.5024C236.253 28.704 235.071 28.9055 233.77 29.1071C232.378 29.327 231.196 29.7301 230.225 30.3164C229.272 30.8845 228.796 31.7457 228.796 32.9001C228.796 33.9262 229.199 34.7324 230.005 35.3188C230.83 35.8868 231.92 36.1708 233.276 36.1708Z" fill="white"/>
<path d="M259.677 0.357311V41.3106H251.569V0.357311H259.677Z" fill="white"/>
<path d="M264.887 52.7995V46.3954H268.57C269.541 46.3954 270.256 46.1572 270.714 45.6808C271.191 45.2227 271.621 44.4348 272.006 43.317L272.803 41.2007L261.644 12.286H270.137L275.002 26.6334C275.332 27.6778 275.652 28.7223 275.964 29.7667C276.294 30.8112 276.614 31.8556 276.926 32.9001C277.237 31.8556 277.558 30.8112 277.888 29.7667C278.218 28.704 278.548 27.6595 278.877 26.6334L283.77 12.286H292.18L279.4 45.7907C278.483 48.2095 277.292 49.9777 275.826 51.0954C274.361 52.2315 272.501 52.7995 270.247 52.7995H264.887Z" fill="white"/>
<path d="M301.541 41.8053C298.646 41.8053 296.254 41.0816 294.367 39.634C292.498 38.1864 291.564 36.0151 291.564 33.12C291.564 30.9394 292.086 29.2353 293.13 28.0077C294.175 26.7617 295.558 25.8546 297.281 25.2866C299.003 24.7186 300.872 24.3429 302.888 24.1597C305.544 23.8848 307.404 23.61 308.467 23.3351C309.53 23.0603 310.061 22.4556 310.061 21.5211V21.3287C310.061 20.2659 309.64 19.3956 308.797 18.7176C307.954 18.0396 306.79 17.7006 305.306 17.7006C303.804 17.7006 302.585 18.0488 301.651 18.7451C300.716 19.4414 300.203 20.3484 300.112 21.4661H292.498C292.681 18.4794 293.909 16.1065 296.181 14.3474C298.453 12.57 301.577 11.6813 305.554 11.6813C309.53 11.6813 312.608 12.57 314.789 14.3474C316.969 16.1065 318.059 18.5343 318.059 21.631V41.3106H310.144V37.2153H310.034C309.264 38.6262 308.211 39.7439 306.873 40.5685C305.535 41.3931 303.758 41.8053 301.541 41.8053ZM303.795 36.1708C305.737 36.1708 307.276 35.6578 308.412 34.6316C309.548 33.5872 310.116 32.2771 310.116 30.7012V27.7878C309.658 28.0443 308.898 28.2825 307.835 28.5024C306.772 28.704 305.59 28.9055 304.289 29.1071C302.897 29.327 301.715 29.7301 300.744 30.3164C299.791 30.8845 299.314 31.7457 299.314 32.9001C299.314 33.9262 299.718 34.7324 300.524 35.3188C301.348 35.8868 302.439 36.1708 303.795 36.1708Z" fill="white"/>
<path d="M330.196 25.1767V41.3106H322.088V12.286H330.059V16.8486C331.048 15.1994 332.285 13.926 333.769 13.0281C335.253 12.1302 337.04 11.6813 339.129 11.6813C342.207 11.6813 344.672 12.6799 346.522 14.6772C348.373 16.6562 349.298 19.478 349.298 23.1427V41.3106H341.218V24.627C341.218 22.6846 340.75 21.2096 339.816 20.2018C338.881 19.1757 337.571 18.6626 335.885 18.6626C334.218 18.6626 332.853 19.1848 331.79 20.2293C330.727 21.2737 330.196 22.9229 330.196 25.1767Z" fill="white"/>
<path d="M123.343 99.9141V58.9608H139.504C142.564 58.9608 145.212 59.5105 147.448 60.6099C149.701 61.691 151.433 63.2393 152.642 65.2549C153.87 67.2705 154.484 69.6526 154.484 72.4012C154.484 75.1497 153.861 77.5318 152.615 79.5474C151.387 81.5446 149.646 83.093 147.393 84.1924C145.139 85.2918 142.473 85.8415 139.394 85.8415H131.808V99.9141H123.343ZM131.808 78.7503H138.955C141.19 78.7503 142.958 78.1823 144.259 77.0462C145.56 75.8918 146.211 74.3435 146.211 72.4012C146.211 70.4405 145.56 68.8922 144.259 67.7561C142.958 66.6201 141.19 66.052 138.955 66.052H131.808V78.7503Z" fill="white"/>
<path d="M168.737 100.574C165.805 100.574 163.249 99.9232 161.068 98.6223C158.906 97.3213 157.22 95.5347 156.011 93.2626C154.82 90.9721 154.224 88.361 154.224 85.4293C154.224 82.4791 154.829 79.8589 156.038 77.5684C157.266 75.278 158.952 73.4823 161.096 72.1813C163.24 70.8803 165.695 70.2298 168.462 70.2298C171.32 70.2298 173.812 70.8711 175.938 72.1538C178.082 73.4181 179.749 75.1863 180.94 77.4585C182.15 79.7123 182.754 82.3142 182.754 85.2643V87.4357H162.113C162.186 89.5796 162.818 91.2928 164.009 92.5755C165.2 93.8581 166.858 94.4994 168.984 94.4994C170.56 94.4994 171.87 94.1605 172.914 93.4825C173.977 92.8045 174.692 91.9067 175.058 90.7889H182.452C182.104 92.7129 181.288 94.4078 180.006 95.8737C178.723 97.3396 177.111 98.494 175.168 99.3369C173.226 100.161 171.082 100.574 168.737 100.574ZM162.168 82.2684H175.113C174.912 80.4544 174.234 79.0251 173.079 77.9807C171.943 76.9179 170.459 76.3865 168.627 76.3865C166.813 76.3865 165.338 76.9179 164.202 77.9807C163.065 79.0251 162.387 80.4544 162.168 82.2684Z" fill="white"/>
<path d="M202.092 70.8895V77.2386H196.155V90.9538C196.155 91.9433 196.347 92.6304 196.732 93.0152C197.135 93.3817 197.887 93.5649 198.986 93.5649H202.092V99.9141H197.364C194.176 99.9141 191.821 99.2911 190.301 98.0451C188.798 96.7991 188.047 94.8568 188.047 92.2182V77.2386H183.044V70.8895H188.047V62.9737H196.155V70.8895H202.092Z" fill="white"/>
<path d="M204.498 99.9141V70.8895H212.304V75.8368H212.387C212.918 74.0961 213.752 72.8043 214.888 71.9614C216.024 71.1185 217.554 70.6971 219.478 70.6971C219.954 70.6971 220.385 70.7062 220.77 70.7245C221.173 70.7429 221.539 70.752 221.869 70.752V77.6509C221.576 77.6326 221.091 77.6051 220.413 77.5684C219.735 77.5318 219.057 77.5134 218.379 77.5134C216.711 77.5134 215.328 78.0815 214.228 79.2175C213.147 80.3536 212.607 82.0119 212.607 84.1924V99.9141H204.498Z" fill="white"/>
<path d="M237.002 100.574C234.07 100.574 231.495 99.9416 229.278 98.6772C227.079 97.4129 225.357 95.6538 224.111 93.4C222.883 91.1279 222.269 88.471 222.269 85.4293C222.269 82.3875 222.883 79.7306 224.111 77.4585C225.357 75.1863 227.079 73.4181 229.278 72.1538C231.495 70.8711 234.07 70.2298 237.002 70.2298C239.952 70.2298 242.526 70.8711 244.725 72.1538C246.942 73.4181 248.665 75.1863 249.892 77.4585C251.138 79.7306 251.761 82.3875 251.761 85.4293C251.761 88.4527 251.138 91.1004 249.892 93.3725C248.665 95.6447 246.942 97.4129 244.725 98.6772C242.526 99.9416 239.952 100.574 237.002 100.574ZM237.002 94.0047C238.981 94.0047 240.575 93.2534 241.784 91.7509C242.993 90.23 243.598 88.1228 243.598 85.4293C243.598 82.7174 242.993 80.601 241.784 79.0801C240.575 77.5593 238.981 76.7988 237.002 76.7988C235.041 76.7988 233.456 77.5593 232.247 79.0801C231.037 80.601 230.433 82.7174 230.433 85.4293C230.433 88.1228 231.037 90.23 232.247 91.7509C233.456 93.2534 235.041 94.0047 237.002 94.0047Z" fill="white"/>
<path d="M267.856 100.574C264.942 100.574 262.395 99.9416 260.215 98.6772C258.034 97.3946 256.33 95.6172 255.102 93.3451C253.893 91.0546 253.288 88.416 253.288 85.4293C253.288 82.4242 253.893 79.7856 255.102 77.5134C256.33 75.223 258.034 73.4364 260.215 72.1538C262.395 70.8711 264.942 70.2298 267.856 70.2298C270.403 70.2298 272.666 70.7245 274.645 71.714C276.642 72.6852 278.236 74.0411 279.427 75.7819C280.636 77.5043 281.324 79.4924 281.488 81.7462H273.655C273.435 80.262 272.831 79.0618 271.841 78.1456C270.87 77.2294 269.578 76.7713 267.966 76.7713C265.932 76.7713 264.338 77.5501 263.183 79.1076C262.029 80.6651 261.452 82.7723 261.452 85.4293C261.452 88.0679 262.029 90.1659 263.183 91.7234C264.338 93.2626 265.932 94.0322 267.966 94.0322C269.596 94.0322 270.879 93.5741 271.814 92.6579C272.748 91.7417 273.344 90.5232 273.6 89.0024H281.488C281.379 91.2378 280.728 93.226 279.537 94.9667C278.346 96.7074 276.743 98.0817 274.727 99.0895C272.73 100.079 270.439 100.574 267.856 100.574Z" fill="white"/>
<path d="M292.251 83.7801V99.9141H284.142V58.9608H292.251V75.2596C293.222 73.6655 294.44 72.4378 295.906 71.5766C297.39 70.7154 299.15 70.2848 301.183 70.2848C304.262 70.2848 306.726 71.2834 308.577 73.2807C310.428 75.2596 311.353 78.0815 311.353 81.7462V99.9141H303.272V83.2304C303.272 81.2881 302.805 79.8131 301.871 78.8053C300.936 77.7791 299.626 77.2661 297.94 77.2661C296.273 77.2661 294.908 77.7883 293.845 78.8327C292.782 79.8772 292.251 81.5263 292.251 83.7801Z" fill="white"/>
<path d="M328.684 100.574C325.752 100.574 323.196 99.9232 321.016 98.6223C318.854 97.3213 317.168 95.5347 315.959 93.2626C314.767 90.9721 314.172 88.361 314.172 85.4293C314.172 82.4791 314.777 79.8589 315.986 77.5684C317.214 75.278 318.899 73.4823 321.043 72.1813C323.187 70.8803 325.643 70.2298 328.409 70.2298C331.268 70.2298 333.76 70.8711 335.885 72.1538C338.029 73.4181 339.697 75.1863 340.888 77.4585C342.097 79.7123 342.702 82.3142 342.702 85.2643V87.4357H322.06C322.134 89.5796 322.766 91.2928 323.957 92.5755C325.148 93.8581 326.806 94.4994 328.932 94.4994C330.507 94.4994 331.818 94.1605 332.862 93.4825C333.925 92.8045 334.639 91.9067 335.006 90.7889H342.399C342.051 92.7129 341.236 94.4078 339.953 95.8737C338.671 97.3396 337.058 98.494 335.116 99.3369C333.174 100.161 331.03 100.574 328.684 100.574ZM322.115 82.2684H335.061C334.859 80.4544 334.181 79.0251 333.027 77.9807C331.891 76.9179 330.407 76.3865 328.574 76.3865C326.76 76.3865 325.285 76.9179 324.149 77.9807C323.013 79.0251 322.335 80.4544 322.115 82.2684Z" fill="white"/>
<path d="M345.356 99.9141V70.8895H353.162V76.1117C354.023 74.1511 355.241 72.6943 356.817 71.7415C358.393 70.7704 360.106 70.2848 361.957 70.2848C363.918 70.2848 365.649 70.7887 367.152 71.7965C368.673 72.786 369.735 74.1694 370.34 75.9468C371.11 74.1694 372.319 72.786 373.968 71.7965C375.636 70.7887 377.523 70.2848 379.63 70.2848C382.415 70.2848 384.733 71.1918 386.584 73.0058C388.435 74.8016 389.36 77.3577 389.36 80.6743V99.9141H381.279V82.1585C381.279 80.4177 380.803 79.1168 379.85 78.2556C378.916 77.3943 377.752 76.9637 376.359 76.9637C374.802 76.9637 373.565 77.4676 372.649 78.4754C371.733 79.4832 371.275 80.8025 371.275 82.4333V99.9141H363.469V81.9386C363.469 80.4361 363.02 79.2359 362.122 78.338C361.224 77.4218 360.07 76.9637 358.659 76.9637C357.211 76.9637 355.984 77.4676 354.976 78.4754C353.968 79.4832 353.464 80.9216 353.464 82.7907V99.9141H345.356Z" fill="white"/>
</svg>
